<svg xmlns="http://www.w3.org/2000/svg" xmlns:xlink="http://www.w3.org/1999/xlink" width="128" height="128" viewBox="0 0 128 128">
  <defs>
    <clipPath id="clip-LOGO_MENU">
      <rect width="128" height="128"/>
    </clipPath>
  </defs>
  <g id="LOGO_MENU" data-name="LOGO MENU" clip-path="url(#clip-LOGO_MENU)">
    <g id="Group_2607" data-name="Group 2607" transform="translate(-610 -50)">
      <circle id="Ellipse_13" data-name="Ellipse 13" cx="54" cy="54" r="54" transform="translate(620 60)" fill="#fff"/>
      <g id="Group_2461" data-name="Group 2461" transform="translate(649.455 83.742)">
        <path id="Path_1225" data-name="Path 1225" d="M167.555,224.692a29.157,29.157,0,0,1-16.779-4.977c-4.864-3.451-7.543-8.149-7.543-13.227s2.679-9.776,7.543-13.227a29.156,29.156,0,0,1,16.779-4.978.707.707,0,0,1,.707.708v5.118a.707.707,0,0,1-.707.707,22.6,22.6,0,0,0-13,3.773c-3.089,2.192-4.791,5-4.791,7.9s1.7,5.707,4.791,7.9a22.6,22.6,0,0,0,13,3.773h13.651a.707.707,0,0,1,.707.707v5.119a.707.707,0,0,1-.707.707Z" transform="translate(-142.525 -164.882)" fill="#ffbeae"/>
        <path id="Path_1226" data-name="Path 1226" d="M165.949,187.385V192.5a23.3,23.3,0,0,0-13.408,3.9c-3.282,2.328-5.089,5.338-5.089,8.475s1.807,6.147,5.089,8.475a23.3,23.3,0,0,0,13.408,3.9H179.6v5.119H165.949a28.444,28.444,0,0,1-16.369-4.847c-4.673-3.315-7.245-7.807-7.245-12.65s2.573-9.335,7.245-12.65a28.445,28.445,0,0,1,16.369-4.847m0-1.414a29.866,29.866,0,0,0-17.188,5.108c-5.057,3.587-7.841,8.489-7.841,13.8s2.785,10.216,7.841,13.8a29.865,29.865,0,0,0,17.188,5.108H179.6a1.414,1.414,0,0,0,1.414-1.414v-5.119a1.415,1.415,0,0,0-1.414-1.414H165.949A21.88,21.88,0,0,1,153.36,212.2c-2.9-2.055-4.493-4.655-4.493-7.321s1.6-5.267,4.493-7.322a21.883,21.883,0,0,1,12.589-3.642,1.414,1.414,0,0,0,1.414-1.414v-5.118a1.414,1.414,0,0,0-1.414-1.414" transform="translate(-140.92 -163.277)" fill="#3c0693"/>
        <path id="Path_1227" data-name="Path 1227" d="M167.554,150.454a29.153,29.153,0,0,1-16.778-4.978c-4.865-3.451-7.544-8.149-7.544-13.227s2.679-9.776,7.544-13.227a29.15,29.15,0,0,1,16.778-4.978h13.652a3.284,3.284,0,1,1,0,6.569,3.207,3.207,0,0,1-.466-.036H167.554a22.6,22.6,0,0,0-13,3.773c-3.089,2.192-4.79,5-4.79,7.9s1.7,5.707,4.79,7.9a22.594,22.594,0,0,0,13,3.773,13.266,13.266,0,0,0,3.032-.324,13.271,13.271,0,0,0-3.032-.324.707.707,0,0,1-.707-.707v-5.118a.707.707,0,0,1,.707-.707,17.927,17.927,0,0,1,7.064,1.331c3.763,1.663,4.325,4.176,4.325,5.526s-.562,3.863-4.325,5.526a17.922,17.922,0,0,1-7.064,1.331" transform="translate(-142.525 -113.339)" fill="#ffbeae"/>
        <path id="Path_1228" data-name="Path 1228" d="M179.6,113.147a2.577,2.577,0,0,1,0,5.154,2.62,2.62,0,0,1-.412-.036H165.949a23.3,23.3,0,0,0-13.408,3.9c-3.282,2.328-5.089,5.338-5.089,8.475s1.807,6.148,5.089,8.475a23.3,23.3,0,0,0,13.408,3.9,12.719,12.719,0,0,0,4.209-.638.418.418,0,0,0,0-.787,12.719,12.719,0,0,0-4.209-.638v-5.118a17.21,17.21,0,0,1,6.778,1.27c1.458.644,3.9,2.135,3.9,4.879s-2.446,4.235-3.9,4.88a17.21,17.21,0,0,1-6.778,1.271,28.443,28.443,0,0,1-16.369-4.847c-4.673-3.315-7.245-7.807-7.245-12.65s2.573-9.335,7.245-12.65a28.443,28.443,0,0,1,16.369-4.847H179.6m0-1.414H165.949a29.868,29.868,0,0,0-17.188,5.108c-5.057,3.588-7.841,8.489-7.841,13.8s2.785,10.216,7.841,13.8a29.868,29.868,0,0,0,17.188,5.108,18.649,18.649,0,0,0,7.35-1.391,9.789,9.789,0,0,0,2.928-1.947,5.82,5.82,0,0,0,0-8.451,9.79,9.79,0,0,0-2.928-1.948,18.646,18.646,0,0,0-7.35-1.391,1.414,1.414,0,0,0-1.414,1.415v5.118a1.409,1.409,0,0,0,.142.618,21.406,21.406,0,0,1-11.317-3.612c-2.9-2.055-4.493-4.655-4.493-7.322s1.6-5.266,4.493-7.321a21.883,21.883,0,0,1,12.589-3.643h13.136a3.8,3.8,0,0,0,.516.036,3.992,3.992,0,0,0,0-7.983" transform="translate(-140.92 -111.733)" fill="#3c0693"/>
        <path id="Path_1229" data-name="Path 1229" d="M218.364,191.868a17.2,17.2,0,0,0-6.778-1.27,32.262,32.262,0,0,0-3.287.167c.229.979.721,1.923,1.023,2.878a4.507,4.507,0,0,1,.323,2.142c.641-.045,1.288-.069,1.941-.069a12.714,12.714,0,0,1,4.209.638.417.417,0,0,1,0,.786,12.722,12.722,0,0,1-4.209.638,27,27,0,0,1-4.422-.36,46.222,46.222,0,0,1-.513,5.1,32.175,32.175,0,0,0,4.935.381,17.215,17.215,0,0,0,6.778-1.27c1.458-.645,3.9-2.136,3.9-4.879s-2.446-4.236-3.9-4.879" transform="translate(-186.557 -166.489)" fill="#ffbeae"/>
        <path id="Path_1230" data-name="Path 1230" d="M259.993,292.465a3.284,3.284,0,1,1,3.284-3.284,3.288,3.288,0,0,1-3.284,3.284" transform="translate(-221.313 -232.655)" fill="#00a99d"/>
        <path id="Path_1231" data-name="Path 1231" d="M258.388,285a2.577,2.577,0,1,1-2.577,2.577A2.577,2.577,0,0,1,258.388,285m0-1.415a3.991,3.991,0,1,0,3.991,3.992,4,4,0,0,0-3.991-3.992" transform="translate(-219.708 -231.049)" fill="#3c0693"/>
      </g>
    </g>
  </g>
</svg>
